{"title":"The.Mummy-Dual.Audio(HINDI-ENG)BRrip.aaaevilacharya","uid":5836784,"size":961224287,"categoryP":"video","categoryS":"movies","magnet":"?xt=urn:btih:04eef271e0d8684728ca6645ae8737cba0e778bc&amp;dn=The.Mummy-Dual.Audio%28HINDI-ENG%29BRrip.aaaevilacharya&amp;tr=udp%3A%2F%2Ftracker.openbittorrent.com%3A80&amp;tr=udp%3A%2F%2Fopen.demonii.com%3A1337&amp;tr=udp%3A%2F%2Ftracker.coppersurfer.tk%3A6969&amp;tr=udp%3A%2F%2Fexodus.desync.com%3A6969","seeders":0,"leechers":1,"uploader":"achaevil","files":10,"time":1284748801,"description":"General\nComplete name : The.Mummy-Dual.Audio(HINDI-ENG)BRrip.\nFormat : Matroska\nFile size : 915 MiB\nDuration : 1h 59mn\nOverall bit rate : 1 069 Kbps\n\n\nVideo\nID : 1\nFormat : MPEG-4 Visual\nFormat profile : Advanced Simple@L5\nFormat settings, BVOP : Yes\nFormat settings, QPel : No\nFormat settings, GMC : No warppoints\nFormat settings, Matrix : Default (H.263)\nCodec ID : DX50\nCodec ID/Hint : DivX 5\nDuration : 1h 59mn\nBit rate : 680 Kbps\nWidth : 640 pixels\nHeight : 262 pixels\nDisplay aspect ratio : 2.40:1\nFrame rate : 25.000 fps\nColor space : YUV\nChroma subsampling : 4:2:0\nBit depth : 8 bits\nScan type : Progressive\nBits/(Pixel*Frame) : 0.162\nStream size : 582 MiB (64%)\n\n\nAudio #1 ENG.\nID : 2\nFormat : MPEG Audio\nFormat version : Version 1\nFormat profile : Layer 3\nCodec ID : A MPEG/L3\nCodec ID/Hint : MP3\nDuration : 1h 59mn\nBit rate mode : Constant\nBit rate : 112 Kbps\nChannel(s) : 2 channels\nSampling rate : 48.0 KHz\nStream size : 95.9 MiB (10%)\n\nAudio #2 HINDI.\nID : 3\nFormat : MPEG Audio\nFormat version : Version 1\nFormat profile : Layer 3\nCodec ID : A_MPEG/L3\nCodec ID/Hint : MP3\nDuration : 1h 59mn\nBit rate mode : Constant\nBit rate : 256 Kbps\nChannel(s) : 2 channels\nSampling rate : 44.1 KHz\nStream size : 219 MiB (24%)\n\nLanguage : Hindi\n\nIMDb:http://www.imdb.com/title/tt0120616/","torrent":{"xt":"urn:btih:04eef271e0d8684728ca6645ae8737cba0e778bc","amp;dn":"The.Mummy-Dual.Audio%28HINDI-ENG%29BRrip.aaaevilacharya","amp;tr":["udp%3A%2F%2Ftracker.openbittorrent.com%3A80","udp%3A%2F%2Fopen.demonii.com%3A1337","udp%3A%2F%2Ftracker.coppersurfer.tk%3A6969","udp%3A%2F%2Fexodus.desync.com%3A6969"],"infoHash":"04eef271e0d8684728ca6645ae8737cba0e778bc","infoHashBuffer":{"type":"Buffer","data":[4,238,242,113,224,216,104,71,40,202,102,69,174,135,55,203,160,231,120,188]},"announce":[],"urlList":[]}}